# xmcd
#
# Track frame offsets:
#	150
#	18823
#	38363
#	62288
#	84570
#	101446
#	119017
#	140212
#	159773
#	172445
#
# Disc length: 2466 seconds
#
# Revision: 1
# Processed by: cddbd v1.5.2PL0 Copyright (c) Steve Scherf et al.
# Submitted via: audiograbber 1.83.01
#
DISCID=7909a00a
DTITLE=Chris Laterzo - American River
DYEAR=1997
DGENRE=Americana
TTITLE0=Big Medicine
TTITLE1=Around The Sun
TTITLE2=Ballad Of An Old Man
TTITLE3=Silver Rain
TTITLE4=Nomadic Soul
TTITLE5=The Pilgrimage
TTITLE6=Melody Maker
TTITLE7=American River
TTITLE8=Teal Eye
TTITLE9=Lady Of Belen
EXTD=
EXTT0=
EXTT1=
EXTT2=
EXTT3=
EXTT4=
EXTT5=
EXTT6=
EXTT7=
EXTT8=
EXTT9=
PLAYORDER=
